<mxfile host="app.diagrams.net" agent="Mozilla/5.0 (Windows NT 10.0; Win64; x64) AppleWebKit/537.36 (KHTML, like Gecko) Chrome/128.0.0.0 Safari/537.36" version="24.7.14">
  <diagram name="PÃ¡gina-1" id="HWcggl-pUZ7EsL2peBfC">
    <mxGraphModel dx="4200" dy="2436" grid="1" gridSize="10" guides="1" tooltips="1" connect="1" arrows="1" fold="1" page="1" pageScale="1" pageWidth="827" pageHeight="1169" math="0" shadow="0">
      <root>
        <mxCell id="0" />
        <mxCell id="1" parent="0" />
        <mxCell id="cVZkR7yWbbvgz_Vv2wZ--47" style="edgeStyle=orthogonalEdgeStyle;rounded=0;orthogonalLoop=1;jettySize=auto;html=1;entryX=0.5;entryY=0;entryDx=0;entryDy=0;shape=flexArrow;fillColor=#4C84B5;strokeColor=#000000;" edge="1" parent="1" source="cVZkR7yWbbvgz_Vv2wZ--1" target="cVZkR7yWbbvgz_Vv2wZ--2">
          <mxGeometry relative="1" as="geometry" />
        </mxCell>
        <mxCell id="cVZkR7yWbbvgz_Vv2wZ--1" value="INCIO" style="ellipse;whiteSpace=wrap;html=1;fillColor=#4C84B5;strokeColor=#000000;" vertex="1" parent="1">
          <mxGeometry x="610" y="280" width="120" height="80" as="geometry" />
        </mxCell>
        <mxCell id="cVZkR7yWbbvgz_Vv2wZ--48" style="edgeStyle=orthogonalEdgeStyle;rounded=0;orthogonalLoop=1;jettySize=auto;html=1;shape=flexArrow;fillColor=#4C84B5;strokeColor=#000000;" edge="1" parent="1" source="cVZkR7yWbbvgz_Vv2wZ--2">
          <mxGeometry relative="1" as="geometry">
            <mxPoint x="670" y="510" as="targetPoint" />
          </mxGeometry>
        </mxCell>
        <mxCell id="cVZkR7yWbbvgz_Vv2wZ--2" value="PRODUCTS=inventario.txt" style="rounded=0;whiteSpace=wrap;html=1;fillColor=#4C84B5;strokeColor=#000000;" vertex="1" parent="1">
          <mxGeometry x="540" y="410" width="260" height="60" as="geometry" />
        </mxCell>
        <mxCell id="cVZkR7yWbbvgz_Vv2wZ--4" value="MOSTRAR MENU" style="rounded=1;whiteSpace=wrap;html=1;fillColor=#4C84B5;strokeColor=#000000;" vertex="1" parent="1">
          <mxGeometry x="610" y="520" width="120" height="60" as="geometry" />
        </mxCell>
        <mxCell id="cVZkR7yWbbvgz_Vv2wZ--66" style="edgeStyle=orthogonalEdgeStyle;rounded=0;orthogonalLoop=1;jettySize=auto;html=1;shape=flexArrow;fillColor=#4C84B5;strokeColor=#000000;" edge="1" parent="1" source="cVZkR7yWbbvgz_Vv2wZ--5">
          <mxGeometry relative="1" as="geometry">
            <mxPoint x="672.5" y="730" as="targetPoint" />
          </mxGeometry>
        </mxCell>
        <mxCell id="cVZkR7yWbbvgz_Vv2wZ--5" value="OPCION" style="shape=parallelogram;perimeter=parallelogramPerimeter;whiteSpace=wrap;html=1;fixedSize=1;fillColor=#4C84B5;strokeColor=#000000;" vertex="1" parent="1">
          <mxGeometry x="590" y="620" width="165" height="60" as="geometry" />
        </mxCell>
        <mxCell id="cVZkR7yWbbvgz_Vv2wZ--46" style="edgeStyle=orthogonalEdgeStyle;rounded=0;orthogonalLoop=1;jettySize=auto;html=1;entryX=0;entryY=0.5;entryDx=0;entryDy=0;shape=flexArrow;fillColor=#4C84B5;strokeColor=#000000;" edge="1" parent="1" source="cVZkR7yWbbvgz_Vv2wZ--6" target="cVZkR7yWbbvgz_Vv2wZ--14">
          <mxGeometry relative="1" as="geometry" />
        </mxCell>
        <mxCell id="cVZkR7yWbbvgz_Vv2wZ--67" value="Si" style="edgeLabel;html=1;align=center;verticalAlign=middle;resizable=0;points=[];fillColor=#4C84B5;strokeColor=#000000;" vertex="1" connectable="0" parent="cVZkR7yWbbvgz_Vv2wZ--46">
          <mxGeometry x="-0.5297" y="-1" relative="1" as="geometry">
            <mxPoint x="7" y="-1" as="offset" />
          </mxGeometry>
        </mxCell>
        <mxCell id="cVZkR7yWbbvgz_Vv2wZ--68" style="edgeStyle=orthogonalEdgeStyle;rounded=0;orthogonalLoop=1;jettySize=auto;html=1;entryX=0.5;entryY=0;entryDx=0;entryDy=0;shape=flexArrow;fillColor=#4C84B5;strokeColor=#000000;" edge="1" parent="1" source="cVZkR7yWbbvgz_Vv2wZ--6" target="cVZkR7yWbbvgz_Vv2wZ--7">
          <mxGeometry relative="1" as="geometry" />
        </mxCell>
        <mxCell id="cVZkR7yWbbvgz_Vv2wZ--70" value="NO" style="edgeLabel;html=1;align=center;verticalAlign=middle;resizable=0;points=[];fillColor=#4C84B5;strokeColor=#000000;" vertex="1" connectable="0" parent="cVZkR7yWbbvgz_Vv2wZ--68">
          <mxGeometry x="-0.7174" y="-1" relative="1" as="geometry">
            <mxPoint y="10" as="offset" />
          </mxGeometry>
        </mxCell>
        <mxCell id="cVZkR7yWbbvgz_Vv2wZ--6" value="OPCION 1?&lt;br&gt;&quot;agregar producto&quot;" style="rhombus;whiteSpace=wrap;html=1;fillColor=#4C84B5;strokeColor=#000000;" vertex="1" parent="1">
          <mxGeometry x="601.25" y="734.06" width="140" height="130" as="geometry" />
        </mxCell>
        <mxCell id="cVZkR7yWbbvgz_Vv2wZ--71" style="edgeStyle=orthogonalEdgeStyle;rounded=0;orthogonalLoop=1;jettySize=auto;html=1;entryX=0.5;entryY=0;entryDx=0;entryDy=0;shape=flexArrow;fillColor=#4C84B5;strokeColor=#000000;" edge="1" parent="1" source="cVZkR7yWbbvgz_Vv2wZ--7" target="cVZkR7yWbbvgz_Vv2wZ--8">
          <mxGeometry relative="1" as="geometry" />
        </mxCell>
        <mxCell id="cVZkR7yWbbvgz_Vv2wZ--72" value="NO" style="edgeLabel;html=1;align=center;verticalAlign=middle;resizable=0;points=[];fillColor=#4C84B5;strokeColor=#000000;" vertex="1" connectable="0" parent="cVZkR7yWbbvgz_Vv2wZ--71">
          <mxGeometry x="-0.4756" y="-2" relative="1" as="geometry">
            <mxPoint x="1" y="7" as="offset" />
          </mxGeometry>
        </mxCell>
        <mxCell id="cVZkR7yWbbvgz_Vv2wZ--82" style="edgeStyle=orthogonalEdgeStyle;rounded=0;orthogonalLoop=1;jettySize=auto;html=1;shape=flexArrow;fillColor=#4C84B5;strokeColor=#000000;" edge="1" parent="1" source="cVZkR7yWbbvgz_Vv2wZ--7">
          <mxGeometry relative="1" as="geometry">
            <mxPoint x="2130" y="810" as="targetPoint" />
          </mxGeometry>
        </mxCell>
        <mxCell id="cVZkR7yWbbvgz_Vv2wZ--7" value="OPCION 2?&lt;br&gt;&quot;mostrar productos&quot;" style="rhombus;whiteSpace=wrap;html=1;fillColor=#4C84B5;strokeColor=#000000;" vertex="1" parent="1">
          <mxGeometry x="601.25" y="900" width="140" height="130" as="geometry" />
        </mxCell>
        <mxCell id="cVZkR7yWbbvgz_Vv2wZ--58" style="edgeStyle=orthogonalEdgeStyle;rounded=0;orthogonalLoop=1;jettySize=auto;html=1;entryX=0;entryY=0.5;entryDx=0;entryDy=0;shape=flexArrow;fillColor=#4C84B5;strokeColor=#000000;" edge="1" parent="1" source="cVZkR7yWbbvgz_Vv2wZ--8" target="cVZkR7yWbbvgz_Vv2wZ--57">
          <mxGeometry relative="1" as="geometry" />
        </mxCell>
        <mxCell id="cVZkR7yWbbvgz_Vv2wZ--73" value="SI" style="edgeLabel;html=1;align=center;verticalAlign=middle;resizable=0;points=[];fillColor=#4C84B5;strokeColor=#000000;" vertex="1" connectable="0" parent="cVZkR7yWbbvgz_Vv2wZ--58">
          <mxGeometry x="-0.4481" y="-1" relative="1" as="geometry">
            <mxPoint as="offset" />
          </mxGeometry>
        </mxCell>
        <mxCell id="cVZkR7yWbbvgz_Vv2wZ--74" style="edgeStyle=orthogonalEdgeStyle;rounded=0;orthogonalLoop=1;jettySize=auto;html=1;entryX=0.5;entryY=0;entryDx=0;entryDy=0;shape=flexArrow;fillColor=#4C84B5;strokeColor=#000000;" edge="1" parent="1" source="cVZkR7yWbbvgz_Vv2wZ--8" target="cVZkR7yWbbvgz_Vv2wZ--9">
          <mxGeometry relative="1" as="geometry" />
        </mxCell>
        <mxCell id="cVZkR7yWbbvgz_Vv2wZ--75" value="NO" style="edgeLabel;html=1;align=center;verticalAlign=middle;resizable=0;points=[];fillColor=#4C84B5;strokeColor=#000000;" vertex="1" connectable="0" parent="cVZkR7yWbbvgz_Vv2wZ--74">
          <mxGeometry x="-0.8414" y="-1" relative="1" as="geometry">
            <mxPoint y="26" as="offset" />
          </mxGeometry>
        </mxCell>
        <mxCell id="cVZkR7yWbbvgz_Vv2wZ--8" value="OPCION 3?&lt;br&gt;&quot;buscar producto&lt;br&gt;por nombre&quot;" style="rhombus;whiteSpace=wrap;html=1;fillColor=#4C84B5;strokeColor=#000000;" vertex="1" parent="1">
          <mxGeometry x="601.25" y="1080" width="140" height="130" as="geometry" />
        </mxCell>
        <mxCell id="cVZkR7yWbbvgz_Vv2wZ--77" value="" style="edgeStyle=orthogonalEdgeStyle;rounded=0;orthogonalLoop=1;jettySize=auto;html=1;shape=flexArrow;fillColor=#4C84B5;strokeColor=#000000;" edge="1" parent="1" source="cVZkR7yWbbvgz_Vv2wZ--9" target="cVZkR7yWbbvgz_Vv2wZ--76">
          <mxGeometry relative="1" as="geometry" />
        </mxCell>
        <mxCell id="cVZkR7yWbbvgz_Vv2wZ--78" value="SI" style="edgeLabel;html=1;align=center;verticalAlign=middle;resizable=0;points=[];fillColor=#4C84B5;strokeColor=#000000;" vertex="1" connectable="0" parent="cVZkR7yWbbvgz_Vv2wZ--77">
          <mxGeometry x="-0.4613" y="3" relative="1" as="geometry">
            <mxPoint as="offset" />
          </mxGeometry>
        </mxCell>
        <mxCell id="cVZkR7yWbbvgz_Vv2wZ--84" style="edgeStyle=orthogonalEdgeStyle;rounded=0;orthogonalLoop=1;jettySize=auto;html=1;entryX=0.5;entryY=0;entryDx=0;entryDy=0;shape=flexArrow;fillColor=#4C84B5;strokeColor=#000000;" edge="1" parent="1" source="cVZkR7yWbbvgz_Vv2wZ--9" target="cVZkR7yWbbvgz_Vv2wZ--10">
          <mxGeometry relative="1" as="geometry" />
        </mxCell>
        <mxCell id="cVZkR7yWbbvgz_Vv2wZ--85" value="NO" style="edgeLabel;html=1;align=center;verticalAlign=middle;resizable=0;points=[];fillColor=#4C84B5;strokeColor=#000000;" vertex="1" connectable="0" parent="cVZkR7yWbbvgz_Vv2wZ--84">
          <mxGeometry x="-0.0989" relative="1" as="geometry">
            <mxPoint as="offset" />
          </mxGeometry>
        </mxCell>
        <mxCell id="cVZkR7yWbbvgz_Vv2wZ--9" value="OPCION 4?&lt;br&gt;&quot;ver productos&lt;br&gt;por precio&quot;" style="rhombus;whiteSpace=wrap;html=1;fillColor=#4C84B5;strokeColor=#000000;" vertex="1" parent="1">
          <mxGeometry x="601.25" y="1270" width="140" height="130" as="geometry" />
        </mxCell>
        <mxCell id="cVZkR7yWbbvgz_Vv2wZ--87" value="" style="edgeStyle=orthogonalEdgeStyle;rounded=0;orthogonalLoop=1;jettySize=auto;html=1;shape=flexArrow;fillColor=#4C84B5;strokeColor=#000000;" edge="1" parent="1" source="cVZkR7yWbbvgz_Vv2wZ--10" target="cVZkR7yWbbvgz_Vv2wZ--86">
          <mxGeometry relative="1" as="geometry" />
        </mxCell>
        <mxCell id="cVZkR7yWbbvgz_Vv2wZ--88" value="SI" style="edgeLabel;html=1;align=center;verticalAlign=middle;resizable=0;points=[];fillColor=#4C84B5;strokeColor=#000000;" vertex="1" connectable="0" parent="cVZkR7yWbbvgz_Vv2wZ--87">
          <mxGeometry x="-0.4727" relative="1" as="geometry">
            <mxPoint as="offset" />
          </mxGeometry>
        </mxCell>
        <mxCell id="cVZkR7yWbbvgz_Vv2wZ--90" style="edgeStyle=orthogonalEdgeStyle;rounded=0;orthogonalLoop=1;jettySize=auto;html=1;entryX=0.5;entryY=0;entryDx=0;entryDy=0;shape=flexArrow;fillColor=#4C84B5;strokeColor=#000000;" edge="1" parent="1" source="cVZkR7yWbbvgz_Vv2wZ--10" target="cVZkR7yWbbvgz_Vv2wZ--11">
          <mxGeometry relative="1" as="geometry" />
        </mxCell>
        <mxCell id="cVZkR7yWbbvgz_Vv2wZ--96" value="NO" style="edgeLabel;html=1;align=center;verticalAlign=middle;resizable=0;points=[];fillColor=#4C84B5;strokeColor=#000000;" vertex="1" connectable="0" parent="cVZkR7yWbbvgz_Vv2wZ--90">
          <mxGeometry x="-0.2524" y="1" relative="1" as="geometry">
            <mxPoint as="offset" />
          </mxGeometry>
        </mxCell>
        <mxCell id="cVZkR7yWbbvgz_Vv2wZ--10" value="OPCION 9?" style="rhombus;whiteSpace=wrap;html=1;fillColor=#4C84B5;strokeColor=#000000;" vertex="1" parent="1">
          <mxGeometry x="601.25" y="1470" width="140" height="130" as="geometry" />
        </mxCell>
        <mxCell id="cVZkR7yWbbvgz_Vv2wZ--91" style="edgeStyle=orthogonalEdgeStyle;rounded=0;orthogonalLoop=1;jettySize=auto;html=1;shape=flexArrow;fillColor=#4C84B5;strokeColor=#000000;" edge="1" parent="1" source="cVZkR7yWbbvgz_Vv2wZ--11">
          <mxGeometry relative="1" as="geometry">
            <mxPoint x="2130" y="1539.9999999999995" as="targetPoint" />
          </mxGeometry>
        </mxCell>
        <mxCell id="cVZkR7yWbbvgz_Vv2wZ--95" value="NO" style="edgeLabel;html=1;align=center;verticalAlign=middle;resizable=0;points=[];fillColor=#4C84B5;strokeColor=#000000;" vertex="1" connectable="0" parent="cVZkR7yWbbvgz_Vv2wZ--91">
          <mxGeometry x="-0.945" y="1" relative="1" as="geometry">
            <mxPoint as="offset" />
          </mxGeometry>
        </mxCell>
        <mxCell id="cVZkR7yWbbvgz_Vv2wZ--94" style="edgeStyle=orthogonalEdgeStyle;rounded=0;orthogonalLoop=1;jettySize=auto;html=1;entryX=0.5;entryY=0;entryDx=0;entryDy=0;shape=flexArrow;fillColor=#4C84B5;strokeColor=#000000;" edge="1" parent="1" source="cVZkR7yWbbvgz_Vv2wZ--11" target="cVZkR7yWbbvgz_Vv2wZ--93">
          <mxGeometry relative="1" as="geometry" />
        </mxCell>
        <mxCell id="cVZkR7yWbbvgz_Vv2wZ--97" value="SI" style="edgeLabel;html=1;align=center;verticalAlign=middle;resizable=0;points=[];fillColor=#4C84B5;strokeColor=#000000;" vertex="1" connectable="0" parent="cVZkR7yWbbvgz_Vv2wZ--94">
          <mxGeometry x="-0.1495" y="1" relative="1" as="geometry">
            <mxPoint as="offset" />
          </mxGeometry>
        </mxCell>
        <mxCell id="cVZkR7yWbbvgz_Vv2wZ--11" value="OPCION &#39;s&#39;?" style="rhombus;whiteSpace=wrap;html=1;fillColor=#4C84B5;strokeColor=#000000;" vertex="1" parent="1">
          <mxGeometry x="601.25" y="1660" width="140" height="130" as="geometry" />
        </mxCell>
        <mxCell id="cVZkR7yWbbvgz_Vv2wZ--14" value="pname&lt;br&gt;&quot;nombre&quot;" style="shape=parallelogram;perimeter=parallelogramPerimeter;whiteSpace=wrap;html=1;fixedSize=1;fillColor=#4C84B5;strokeColor=#000000;" vertex="1" parent="1">
          <mxGeometry x="910" y="769.06" width="120" height="60" as="geometry" />
        </mxCell>
        <mxCell id="cVZkR7yWbbvgz_Vv2wZ--18" style="edgeStyle=orthogonalEdgeStyle;rounded=0;orthogonalLoop=1;jettySize=auto;html=1;entryX=0.572;entryY=0.011;entryDx=0;entryDy=0;entryPerimeter=0;shape=flexArrow;fillColor=#4C84B5;strokeColor=#000000;" edge="1" parent="1" source="cVZkR7yWbbvgz_Vv2wZ--16" target="cVZkR7yWbbvgz_Vv2wZ--14">
          <mxGeometry relative="1" as="geometry">
            <mxPoint x="1140" y="684.06" as="targetPoint" />
            <Array as="points">
              <mxPoint x="1065" y="799" />
              <mxPoint x="1065" y="710" />
              <mxPoint x="979" y="710" />
            </Array>
          </mxGeometry>
        </mxCell>
        <mxCell id="cVZkR7yWbbvgz_Vv2wZ--19" value="NO" style="edgeLabel;html=1;align=center;verticalAlign=middle;resizable=0;points=[];fillColor=#4C84B5;strokeColor=#000000;" vertex="1" connectable="0" parent="cVZkR7yWbbvgz_Vv2wZ--18">
          <mxGeometry x="0.6983" y="1" relative="1" as="geometry">
            <mxPoint as="offset" />
          </mxGeometry>
        </mxCell>
        <mxCell id="cVZkR7yWbbvgz_Vv2wZ--39" style="edgeStyle=orthogonalEdgeStyle;rounded=0;orthogonalLoop=1;jettySize=auto;html=1;shape=flexArrow;fillColor=#4C84B5;strokeColor=#000000;" edge="1" parent="1" source="cVZkR7yWbbvgz_Vv2wZ--16" target="cVZkR7yWbbvgz_Vv2wZ--31">
          <mxGeometry relative="1" as="geometry" />
        </mxCell>
        <mxCell id="cVZkR7yWbbvgz_Vv2wZ--42" value="SI" style="edgeLabel;html=1;align=center;verticalAlign=middle;resizable=0;points=[];fillColor=#4C84B5;strokeColor=#000000;" vertex="1" connectable="0" parent="cVZkR7yWbbvgz_Vv2wZ--39">
          <mxGeometry x="0.0571" relative="1" as="geometry">
            <mxPoint as="offset" />
          </mxGeometry>
        </mxCell>
        <mxCell id="cVZkR7yWbbvgz_Vv2wZ--16" value="pname vÃ¡lido?" style="rhombus;whiteSpace=wrap;html=1;fillColor=#4C84B5;strokeColor=#000000;" vertex="1" parent="1">
          <mxGeometry x="1100" y="759.06" width="80" height="80" as="geometry" />
        </mxCell>
        <mxCell id="cVZkR7yWbbvgz_Vv2wZ--31" value="pprice&lt;br&gt;&quot;precio&quot;" style="shape=parallelogram;perimeter=parallelogramPerimeter;whiteSpace=wrap;html=1;fixedSize=1;fillColor=#4C84B5;strokeColor=#000000;" vertex="1" parent="1">
          <mxGeometry x="1240" y="769.06" width="120" height="60" as="geometry" />
        </mxCell>
        <mxCell id="cVZkR7yWbbvgz_Vv2wZ--32" style="edgeStyle=orthogonalEdgeStyle;rounded=0;orthogonalLoop=1;jettySize=auto;html=1;entryX=0.572;entryY=0.011;entryDx=0;entryDy=0;entryPerimeter=0;shape=flexArrow;fillColor=#4C84B5;strokeColor=#000000;" edge="1" source="cVZkR7yWbbvgz_Vv2wZ--34" target="cVZkR7yWbbvgz_Vv2wZ--31" parent="1">
          <mxGeometry relative="1" as="geometry">
            <mxPoint x="1470" y="684.06" as="targetPoint" />
            <Array as="points">
              <mxPoint x="1395" y="799" />
              <mxPoint x="1395" y="710" />
              <mxPoint x="1309" y="710" />
            </Array>
          </mxGeometry>
        </mxCell>
        <mxCell id="cVZkR7yWbbvgz_Vv2wZ--33" value="NO" style="edgeLabel;html=1;align=center;verticalAlign=middle;resizable=0;points=[];fillColor=#4C84B5;strokeColor=#000000;" vertex="1" connectable="0" parent="cVZkR7yWbbvgz_Vv2wZ--32">
          <mxGeometry x="0.6983" y="1" relative="1" as="geometry">
            <mxPoint as="offset" />
          </mxGeometry>
        </mxCell>
        <mxCell id="cVZkR7yWbbvgz_Vv2wZ--41" style="edgeStyle=orthogonalEdgeStyle;rounded=0;orthogonalLoop=1;jettySize=auto;html=1;shape=flexArrow;fillColor=#4C84B5;strokeColor=#000000;" edge="1" parent="1" source="cVZkR7yWbbvgz_Vv2wZ--34" target="cVZkR7yWbbvgz_Vv2wZ--35">
          <mxGeometry relative="1" as="geometry" />
        </mxCell>
        <mxCell id="cVZkR7yWbbvgz_Vv2wZ--43" value="Si" style="edgeLabel;html=1;align=center;verticalAlign=middle;resizable=0;points=[];fillColor=#4C84B5;strokeColor=#000000;" vertex="1" connectable="0" parent="cVZkR7yWbbvgz_Vv2wZ--41">
          <mxGeometry x="-0.1" y="1" relative="1" as="geometry">
            <mxPoint as="offset" />
          </mxGeometry>
        </mxCell>
        <mxCell id="cVZkR7yWbbvgz_Vv2wZ--34" value="pprice&lt;br&gt;&amp;nbsp;vÃ¡lido?" style="rhombus;whiteSpace=wrap;html=1;fillColor=#4C84B5;strokeColor=#000000;" vertex="1" parent="1">
          <mxGeometry x="1430" y="759.06" width="80" height="80" as="geometry" />
        </mxCell>
        <mxCell id="cVZkR7yWbbvgz_Vv2wZ--35" value="pquant&lt;br&gt;&quot;cantidad&quot;" style="shape=parallelogram;perimeter=parallelogramPerimeter;whiteSpace=wrap;html=1;fixedSize=1;fillColor=#4C84B5;strokeColor=#000000;" vertex="1" parent="1">
          <mxGeometry x="1560" y="769.06" width="120" height="60" as="geometry" />
        </mxCell>
        <mxCell id="cVZkR7yWbbvgz_Vv2wZ--36" style="edgeStyle=orthogonalEdgeStyle;rounded=0;orthogonalLoop=1;jettySize=auto;html=1;entryX=0.572;entryY=0.011;entryDx=0;entryDy=0;entryPerimeter=0;shape=flexArrow;fillColor=#4C84B5;strokeColor=#000000;" edge="1" source="cVZkR7yWbbvgz_Vv2wZ--38" target="cVZkR7yWbbvgz_Vv2wZ--35" parent="1">
          <mxGeometry relative="1" as="geometry">
            <mxPoint x="1790" y="684.06" as="targetPoint" />
            <Array as="points">
              <mxPoint x="1715" y="799" />
              <mxPoint x="1715" y="710" />
              <mxPoint x="1629" y="710" />
            </Array>
          </mxGeometry>
        </mxCell>
        <mxCell id="cVZkR7yWbbvgz_Vv2wZ--37" value="NO" style="edgeLabel;html=1;align=center;verticalAlign=middle;resizable=0;points=[];fillColor=#4C84B5;strokeColor=#000000;" vertex="1" connectable="0" parent="cVZkR7yWbbvgz_Vv2wZ--36">
          <mxGeometry x="0.6983" y="1" relative="1" as="geometry">
            <mxPoint as="offset" />
          </mxGeometry>
        </mxCell>
        <mxCell id="cVZkR7yWbbvgz_Vv2wZ--52" style="edgeStyle=orthogonalEdgeStyle;rounded=0;orthogonalLoop=1;jettySize=auto;html=1;shape=flexArrow;fillColor=#4C84B5;strokeColor=#000000;" edge="1" parent="1" source="cVZkR7yWbbvgz_Vv2wZ--38" target="cVZkR7yWbbvgz_Vv2wZ--44">
          <mxGeometry relative="1" as="geometry" />
        </mxCell>
        <mxCell id="cVZkR7yWbbvgz_Vv2wZ--38" value="pquant&lt;br&gt;&amp;nbsp;vÃ¡lido?" style="rhombus;whiteSpace=wrap;html=1;fillColor=#4C84B5;strokeColor=#000000;" vertex="1" parent="1">
          <mxGeometry x="1750" y="759.06" width="80" height="80" as="geometry" />
        </mxCell>
        <mxCell id="cVZkR7yWbbvgz_Vv2wZ--98" style="edgeStyle=orthogonalEdgeStyle;rounded=0;orthogonalLoop=1;jettySize=auto;html=1;entryX=1;entryY=0.5;entryDx=0;entryDy=0;shape=flexArrow;fillColor=#4C84B5;strokeColor=#000000;" edge="1" parent="1" source="cVZkR7yWbbvgz_Vv2wZ--44" target="cVZkR7yWbbvgz_Vv2wZ--4">
          <mxGeometry relative="1" as="geometry">
            <Array as="points">
              <mxPoint x="2130" y="799" />
              <mxPoint x="2130" y="550" />
            </Array>
          </mxGeometry>
        </mxCell>
        <mxCell id="cVZkR7yWbbvgz_Vv2wZ--44" value="Agregar producto&lt;br&gt;a PRODUCTS" style="shape=step;perimeter=stepPerimeter;whiteSpace=wrap;html=1;fixedSize=1;fillColor=#4C84B5;strokeColor=#000000;" vertex="1" parent="1">
          <mxGeometry x="1900" y="754.06" width="170" height="90" as="geometry" />
        </mxCell>
        <mxCell id="cVZkR7yWbbvgz_Vv2wZ--50" style="edgeStyle=orthogonalEdgeStyle;rounded=0;orthogonalLoop=1;jettySize=auto;html=1;entryX=0.479;entryY=-0.034;entryDx=0;entryDy=0;entryPerimeter=0;shape=flexArrow;fillColor=#4C84B5;strokeColor=#000000;" edge="1" parent="1" source="cVZkR7yWbbvgz_Vv2wZ--4" target="cVZkR7yWbbvgz_Vv2wZ--5">
          <mxGeometry relative="1" as="geometry" />
        </mxCell>
        <mxCell id="cVZkR7yWbbvgz_Vv2wZ--60" value="" style="edgeStyle=orthogonalEdgeStyle;rounded=0;orthogonalLoop=1;jettySize=auto;html=1;shape=flexArrow;fillColor=#4C84B5;strokeColor=#000000;" edge="1" parent="1" source="cVZkR7yWbbvgz_Vv2wZ--57" target="cVZkR7yWbbvgz_Vv2wZ--59">
          <mxGeometry relative="1" as="geometry" />
        </mxCell>
        <mxCell id="cVZkR7yWbbvgz_Vv2wZ--57" value="pname&lt;br&gt;&quot;nombre&quot;" style="shape=parallelogram;perimeter=parallelogramPerimeter;whiteSpace=wrap;html=1;fixedSize=1;fillColor=#4C84B5;strokeColor=#000000;" vertex="1" parent="1">
          <mxGeometry x="920" y="1115" width="120" height="60" as="geometry" />
        </mxCell>
        <mxCell id="cVZkR7yWbbvgz_Vv2wZ--83" style="edgeStyle=orthogonalEdgeStyle;rounded=0;orthogonalLoop=1;jettySize=auto;html=1;shape=flexArrow;fillColor=#4C84B5;strokeColor=#000000;" edge="1" parent="1" source="cVZkR7yWbbvgz_Vv2wZ--59">
          <mxGeometry relative="1" as="geometry">
            <mxPoint x="2130" y="970" as="targetPoint" />
          </mxGeometry>
        </mxCell>
        <mxCell id="cVZkR7yWbbvgz_Vv2wZ--59" value="busco la lÃ­nea que tiene el nombre y muestro en pantalla el producto" style="whiteSpace=wrap;html=1;fillColor=#4C84B5;strokeColor=#000000;" vertex="1" parent="1">
          <mxGeometry x="1120" y="1101.25" width="170" height="87.5" as="geometry" />
        </mxCell>
        <mxCell id="cVZkR7yWbbvgz_Vv2wZ--81" style="edgeStyle=orthogonalEdgeStyle;rounded=0;orthogonalLoop=1;jettySize=auto;html=1;shape=flexArrow;fillColor=#4C84B5;strokeColor=#000000;" edge="1" parent="1" source="cVZkR7yWbbvgz_Vv2wZ--76">
          <mxGeometry relative="1" as="geometry">
            <mxPoint x="2130" y="1150" as="targetPoint" />
          </mxGeometry>
        </mxCell>
        <mxCell id="cVZkR7yWbbvgz_Vv2wZ--76" value="ordenar de mayor precio a menor y mostrarlo en pantalla" style="whiteSpace=wrap;html=1;fillColor=#4C84B5;strokeColor=#000000;" vertex="1" parent="1">
          <mxGeometry x="920" y="1305" width="120" height="60" as="geometry" />
        </mxCell>
        <mxCell id="cVZkR7yWbbvgz_Vv2wZ--89" style="edgeStyle=orthogonalEdgeStyle;rounded=0;orthogonalLoop=1;jettySize=auto;html=1;shape=flexArrow;fillColor=#4C84B5;strokeColor=#000000;" edge="1" parent="1" source="cVZkR7yWbbvgz_Vv2wZ--86">
          <mxGeometry relative="1" as="geometry">
            <mxPoint x="2130" y="1340" as="targetPoint" />
          </mxGeometry>
        </mxCell>
        <mxCell id="cVZkR7yWbbvgz_Vv2wZ--86" value="Borra todos los productos sobreescribiendo PRODUCTS" style="whiteSpace=wrap;html=1;fillColor=#4C84B5;strokeColor=#000000;" vertex="1" parent="1">
          <mxGeometry x="920" y="1505" width="120" height="60" as="geometry" />
        </mxCell>
        <mxCell id="cVZkR7yWbbvgz_Vv2wZ--93" value="Finalizar" style="ellipse;whiteSpace=wrap;html=1;fillColor=#4C84B5;strokeColor=#000000;" vertex="1" parent="1">
          <mxGeometry x="611.25" y="1920" width="120" height="80" as="geometry" />
        </mxCell>
      </root>
    </mxGraphModel>
  </diagram>
</mxfile>
